<svg xmlns="http://www.w3.org/2000/svg" xmlns:xlink="http://www.w3.org/1999/xlink" id="Layer_1" data-name="Layer 1" viewBox="0 0 412.52 78.2"><defs><style> .cls-1 { clip-path: url(#clippath-2); } .cls-2 { fill: #ffcb1b; } .cls-2, .cls-3, .cls-4 { stroke-width: 0px; } .cls-3 { fill: none; } .cls-5 { clip-path: url(#clippath-1); } .cls-4 { fill: #fff; } .cls-6 { clip-path: url(#clippath); } </style><clipPath id="clippath"><rect class="cls-3" width="412.52" height="78.2"></rect></clipPath><clipPath id="clippath-1"><rect class="cls-3" width="412.52" height="78.2"></rect></clipPath><clipPath id="clippath-2"><rect class="cls-3" width="412.52" height="78.2"></rect></clipPath></defs><path class="cls-4" d="M290.91,9.72h37.49v36.77h-37.49V9.72ZM281,56.2h57.3V0h-57.3v56.2Z"></path><polygon class="cls-4" points="187.72 0 187.72 46.49 150.23 46.49 150.23 0 140.32 0 140.32 56.21 197.62 56.21 197.62 0 187.72 0"></polygon><path class="cls-4" d="M220.57,9.72h37.49v13.53h-19.84v9.71h19.84v13.53h-37.49V9.72ZM210.66,56.2h57.3V0h-57.3v56.2Z"></path><path class="cls-4" d="M79.89,9.72h37.49v25.54l-11.44,11.23h-26.04V9.72ZM69.98,0v56.2h40.6l16.7-16.38V0h-57.3Z"></path><polygon class="cls-4" points="399.43 0 380.73 20.82 362.03 0 348.94 0 374.14 28.15 348.93 56.2 362.19 56.2 380.73 35.51 399.26 56.2 412.52 56.2 387.31 28.15 412.52 0 399.43 0"></polygon><polygon class="cls-2" points="0 0 0 56.54 40.1 56.54 56.59 40.05 56.59 0 0 0"></polygon><path class="cls-4" d="M217.16,68.24l2.1,5.94h-4.19l2.09-5.94ZM216.7,66.69l-4.22,11.35h1.2l1.03-2.91h4.9l1.01,2.91h1.2l-4.22-11.35h-.91Z"></path><polygon class="cls-4" points="230.98 66.69 230.98 76.17 225.32 66.69 224.13 66.69 224.13 78.04 225.22 78.04 225.22 68.56 230.87 78.04 232.07 78.04 232.07 66.69 230.98 66.69"></polygon><g class="cls-6"><path class="cls-4" d="M330.88,77.43c-.78-.49-1.36-1.18-1.75-2.06-.39-.88-.59-1.89-.59-3.03s.19-2.14.59-3.01c.39-.87.98-1.55,1.77-2.04.79-.49,1.74-.73,2.87-.73,2.31,0,3.86,1.02,4.66,3.06l-1.02.39c-.3-.79-.75-1.39-1.34-1.8-.59-.41-1.35-.61-2.3-.61-1.36,0-2.38.42-3.08,1.25-.7.84-1.04,1.99-1.04,3.47s.33,2.57,1,3.46c.67.89,1.68,1.33,3.04,1.33,1.81,0,3.05-.82,3.71-2.46l1.04.39c-.41,1-1.02,1.77-1.81,2.31-.79.54-1.77.81-2.95.81-1.1,0-2.03-.25-2.81-.74"></path><path class="cls-4" d="M347.49,76.48c.62-.42,1.07-.98,1.38-1.7.3-.72.46-1.52.46-2.41s-.15-1.7-.46-2.42c-.3-.72-.76-1.29-1.38-1.71-.61-.42-1.36-.62-2.26-.62s-1.64.21-2.25.62c-.61.42-1.07.99-1.37,1.71-.3.72-.46,1.53-.46,2.42s.15,1.69.46,2.41c.3.72.76,1.29,1.37,1.7.61.42,1.36.63,2.25.63s1.64-.21,2.26-.63M342.41,77.38c-.78-.53-1.37-1.23-1.76-2.11-.39-.88-.59-1.84-.59-2.9s.19-2.04.59-2.92c.39-.88.98-1.58,1.76-2.11.78-.53,1.73-.79,2.83-.79s2.05.26,2.83.79c.78.53,1.37,1.23,1.76,2.11.39.88.59,1.85.59,2.92s-.19,2.02-.59,2.9c-.39.88-.98,1.58-1.76,2.11-.78.53-1.72.79-2.83.79s-2.05-.26-2.83-.79"></path></g><polygon class="cls-4" points="362.34 66.69 358.58 75.83 354.8 66.69 353.2 66.69 353.2 78.04 354.29 78.04 354.29 68.09 358.04 77.1 359.11 77.1 362.84 68.14 362.84 78.04 363.95 78.04 363.95 66.69 362.34 66.69"></polygon><g class="cls-5"><path class="cls-4" d="M370.58,72.05c.89,0,1.57-.18,2.03-.54.47-.36.7-.9.7-1.63s-.24-1.27-.71-1.64c-.47-.36-1.15-.55-2.03-.55h-2v4.35h2ZM367.48,66.69h3.19c1.22,0,2.16.28,2.79.83.64.55.95,1.34.95,2.35s-.33,1.82-.98,2.38c-.65.55-1.57.83-2.77.83h-2.1v4.97h-1.09v-11.35Z"></path></g><path class="cls-4" d="M379.37,68.24l2.1,5.94h-4.19l2.08-5.94ZM378.92,66.69l-4.22,11.35h1.21l1.02-2.91h4.9l1.01,2.91h1.21l-4.22-11.35h-.91Z"></path><polygon class="cls-4" points="393.2 66.69 393.2 76.17 387.53 66.69 386.34 66.69 386.34 78.04 387.43 78.04 387.43 68.56 393.08 78.04 394.29 78.04 394.29 66.69 393.2 66.69"></polygon><polygon class="cls-4" points="404.96 66.69 401.34 72.62 397.77 66.69 396.47 66.69 400.82 73.69 400.82 78.04 401.91 78.04 401.91 73.69 406.26 66.69 404.96 66.69"></polygon><path class="cls-4" d="M244.8,68.28l2.32,5.61h-4.75l2.43-5.61ZM244.07,66.47l-5.36,11.73h1.79l1.28-2.94h5.91l1.22,2.94h4.39l-5.06-11.73h-4.17Z"></path><path class="cls-4" d="M279.52,68.28l2.32,5.61h-4.75l2.43-5.61ZM278.78,66.47l-5.36,11.73h1.79l1.28-2.94h5.91l1.22,2.94h4.39l-5.06-11.73h-4.17Z"></path><path class="cls-4" d="M310.08,68.28l2.32,5.61h-4.75l2.43-5.61ZM309.34,66.47l-5.36,11.73h1.79l1.28-2.94h5.91l1.22,2.94h4.39l-5.06-11.73h-4.17Z"></path><g class="cls-1"><path class="cls-4" d="M322.49,74.06c-1.14,0-2.07.93-2.07,2.07s.93,2.07,2.07,2.07,2.07-.93,2.07-2.07-.93-2.07-2.07-2.07"></path></g><polygon class="cls-4" points="267.44 66.47 263.54 75.7 259.49 66.47 255.15 66.47 255.15 78.2 256.65 78.2 256.65 69.88 260.12 78.2 263.98 78.2 267.44 69.88 267.44 78.2 271.58 78.2 271.58 66.47 267.44 66.47"></polygon><polygon class="cls-4" points="300.66 66.47 300.66 75.38 294.27 66.47 289.86 66.47 289.86 78.2 291.36 78.2 291.36 69.26 297.8 78.2 302.15 78.2 302.15 66.47 300.66 66.47"></polygon></svg>


